<?xml version="1.0" encoding="utf-8"?>
<!-- Generator: Adobe Illustrator 23.0.1, SVG Export Plug-In . SVG Version: 6.00 Build 0)  -->
<svg version="1.1" id="Layer_1" xmlns="http://www.w3.org/2000/svg" xmlns:xlink="http://www.w3.org/1999/xlink" x="0px" y="0px"
	 viewBox="0 0 64 64" style="enable-background:new 0 0 64 64;" xml:space="preserve">
<style type="text/css">
	.st0{fill:#FFEFE4;}
	.st1{fill:#69EBFC;}
	.st2{fill:#EDD4C2;}
	.st3{fill:#CFB6A4;}
	.st4{fill:#D476E2;}
	.st5{fill:#5861C7;}
	.st6{fill:#FF8354;}
	.st7{fill:#6770E6;}
	.st8{fill:#3A43A9;}
	.st9{fill:#B665C2;}
	.st10{fill:#EA82FA;}
	.st11{fill:#5FD4E3;}
	.st12{fill:#69FFFF;}
	.st13{fill:#858EFF;}
	.st14{fill:#FFA171;}
	.st15{fill:#FFF7F2;}
	.st16{fill:#E0734A;}
	.st17{fill:#FFBF8F;}
	.st18{fill:#A1F1FC;}
	.st19{fill:#7DB6C5;}
	.st20{fill:#F0E0D5;}
	.st21{fill:#8F95E6;}
	.st22{fill:#FFAC8C;}
	.st23{fill:#BFFFFC;}
	.st24{fill:#FFFFFF;}
	.st25{fill:#FFDEC7;}
	.st26{fill:#FFA0FF;}
	.st27{fill:#C2552C;}
	.st28{fill:#FFCAAA;}
	.st29{fill:#4E57BD;}
	.st30{fill:#4952B8;}
	.st31{fill:#5D66DC;}
	.st32{fill:#7B84FA;}
	.st33{fill:#BFFFFF;}
</style>
<g>
	<path class="st0" d="M47,56c0-1.657,1.343-3,3-3v-6c-1.657,0-3-1.343-3-3s1.343-3,3-3v-6c-1.657,0-3-1.343-3-3s1.343-3,3-3v-6
		c-1.657,0-3-1.343-3-3s1.343-3,3-3v-6c-1.657,0-3-1.343-3-3s1.343-3,3-3V0h-5c0,1.657-1.343,3-3,3s-3-1.343-3-3h-5.333
		c0,1.657-1.343,3-3,3s-3-1.343-3-3h-5.333c0,1.657-1.343,3-3,3s-3-1.343-3-3H11c0,1.657-1.343,3-3,3S5,1.657,5,0H0v5
		c1.657,0,3,1.343,3,3s-1.343,3-3,3v6c1.657,0,3,1.343,3,3s-1.343,3-3,3v6c1.657,0,3,1.343,3,3s-1.343,3-3,3v6c1.657,0,3,1.343,3,3
		s-1.343,3-3,3v6c1.657,0,3,1.343,3,3s-1.343,3-3,3v5h5c0-1.657,1.343-3,3-3s3,1.343,3,3h5.333c0-1.657,1.343-3,3-3s3,1.343,3,3
		h5.333c0-1.657,1.343-3,3-3s3,1.343,3,3H39c0-1.657,1.343-3,3-3s3,1.343,3,3h5v-5C48.343,59,47,57.657,47,56z"/>
	<path class="st2" d="M42,59c-1.657,0-3,1.343-3,3h-5.333c0-1.657-1.343-3-3-3s-3,1.343-3,3h-5.333c0-1.657-1.343-3-3-3
		s-3,1.343-3,3H11c0-1.657-1.343-3-3-3s-3,1.343-3,3H0v2h5c0-1.657,1.343-3,3-3s3,1.343,3,3h5.333c0-1.657,1.343-3,3-3s3,1.343,3,3
		h5.333c0-1.657,1.343-3,3-3s3,1.343,3,3H39c0-1.657,1.343-3,3-3s3,1.343,3,3h5v-2h-5C45,60.343,43.657,59,42,59z"/>
	<path class="st15" d="M45,0c0,1.657-1.343,3-3,3s-3-1.343-3-3h-5.333c0,1.657-1.343,3-3,3s-3-1.343-3-3h-5.333c0,1.657-1.343,3-3,3
		s-3-1.343-3-3H11c0,1.657-1.343,3-3,3S5,1.657,5,0H0v2h5c0,1.657,1.343,3,3,3s3-1.343,3-3h5.333c0,1.657,1.343,3,3,3s3-1.343,3-3
		h5.333c0,1.657,1.343,3,3,3s3-1.343,3-3H39c0,1.657,1.343,3,3,3s3-1.343,3-3h5V0H45z"/>
	<rect x="7" y="6" class="st4" width="36" height="52"/>
	<g>
		<polygon class="st18" points="31,18 29,18 29,10 28,10 28,8 31,8 		"/>
	</g>
	<g>
		<path class="st18" d="M37,18h-5V8h5V18z M34,16h1v-6h-1V16z"/>
	</g>
	<g>
		<polygon class="st18" points="41,18 38,18 38,12 41,12 41,14 40,14 40,16 41,16 		"/>
	</g>
	<polygon class="st11" points="33,35 23,58 43,58 43,57.333 	"/>
	<polygon class="st1" points="7,42.6 7,58 30,58 15,25 	"/>
	<polygon class="st18" points="20,36 15,25 10,36 	"/>
	<polygon class="st18" points="37.925,46 33,35 28.217,46 	"/>
	<g>
		<path class="st6" d="M40,52c-7.72,0-14-6.28-14-14s6.28-14,14-14s14,6.28,14,14S47.72,52,40,52z M40,25c-7.168,0-13,5.832-13,13
			s5.832,13,13,13s13-5.832,13-13S47.168,25,40,25z"/>
	</g>
	<g>
		<path class="st6" d="M40,48c-5.514,0-10-4.486-10-10s4.486-10,10-10s10,4.486,10,10S45.514,48,40,48z M40,29c-4.963,0-9,4.037-9,9
			s4.037,9,9,9s9-4.037,9-9S44.963,29,40,29z"/>
	</g>
	<g>
		<path class="st6" d="M57,37.851c-2.338,0-4.677-0.642-6.762-1.925c-3.848-2.367-8.629-2.367-12.477,0
			c-0.231,0.146-0.542,0.072-0.688-0.164c-0.145-0.234-0.071-0.543,0.164-0.688c4.17-2.566,9.354-2.566,13.523,0
			c3.848,2.367,8.629,2.367,12.477,0c0.232-0.145,0.542-0.072,0.688,0.164c0.145,0.234,0.071,0.543-0.164,0.688
			C61.677,37.209,59.338,37.851,57,37.851z"/>
	</g>
	<g>
		<path class="st6" d="M57,41.851c-2.338,0-4.677-0.642-6.762-1.925c-3.848-2.367-8.629-2.367-12.477,0
			c-0.231,0.146-0.542,0.071-0.688-0.164c-0.145-0.234-0.071-0.543,0.164-0.688c4.17-2.566,9.354-2.566,13.523,0
			c3.848,2.367,8.629,2.367,12.477,0c0.232-0.146,0.542-0.071,0.688,0.164c0.145,0.234,0.071,0.543-0.164,0.688
			C61.677,41.209,59.338,41.851,57,41.851z"/>
	</g>
	<g>
		<path class="st6" d="M57,45.851c-2.338,0-4.677-0.642-6.762-1.925c-3.848-2.367-8.629-2.367-12.477,0
			c-0.231,0.145-0.542,0.071-0.688-0.164c-0.145-0.234-0.071-0.543,0.164-0.688c4.17-2.566,9.354-2.566,13.523,0
			c3.848,2.367,8.629,2.367,12.477,0c0.232-0.146,0.542-0.071,0.688,0.164c0.145,0.234,0.071,0.543-0.164,0.688
			C61.677,45.209,59.338,45.851,57,45.851z"/>
	</g>
</g>
</svg>
